<?xml version="1.0" encoding="UTF-8"?>
<!-- Generated by Pixelmator Pro 3.3.5 -->
<svg width="128" height="128" viewBox="0 0 128 128" xmlns="http://www.w3.org/2000/svg">
    <path id="Ellipse" fill="none" stroke="#ff70b8" stroke-width="16" stroke-opacity="0.297148" d="M 69.732048 19.337547 L 74.120155 20.111092 L 78.409813 21.334702 L 82.544762 22.966179 L 86.454681 24.977394 L 89.970795 27.227707 L 93.458778 29.970276 L 96.581085 32.951935 L 99.450233 36.257088 L 101.925583 39.731003 L 104.049309 43.429955 L 105.919884 47.578972 L 107.270073 51.587341 L 108.282715 55.919189 L 109 64.104706 L 108.648392 69.716415 L 107.874847 74.10453 L 106.651237 78.394188 L 105.01976 82.529137 L 103.008545 86.439056 L 100.758232 89.95517 L 98.015663 93.443153 L 95.033997 96.56546 L 91.728851 99.434608 L 88.254929 101.909958 L 84.555977 104.033691 L 80.406967 105.904259 L 76.398598 107.254448 L 72.066742 108.26709 L 63.895298 108.984375 L 58.269516 108.632767 L 53.881405 107.859222 L 49.591747 106.635612 L 45.456799 105.004135 L 41.546879 102.99292 L 38.030766 100.742607 L 34.542782 98.000038 L 31.420473 95.018372 L 28.551325 91.713226 L 26.075981 88.239304 L 23.952248 84.540359 L 22.081676 80.391342 L 20.731489 76.382973 L 19.718847 72.051117 L 19.015625 63.865608 L 19.353172 58.253891 L 20.126717 53.865784 L 21.350325 49.576126 L 22.9818 45.44117 L 24.993017 41.531258 L 27.24333 38.015144 L 29.985899 34.527161 L 32.967564 31.404846 L 36.272709 28.535698 L 39.746632 26.060356 L 43.44558 23.936623 L 47.594597 22.066048 L 51.602962 20.715866 L 55.934814 19.703224 L 64.134392 19 Z"/>
</svg>
