<?xml version="1.0" encoding="UTF-8"?>
<!-- Generated by Pixelmator Pro 3.5.6 -->
<svg width="128" height="128" viewBox="0 0 128 128" xmlns="http://www.w3.org/2000/svg">
    <path id="Star" fill="#ff70b8" fill-opacity="0.298819" fill-rule="evenodd" stroke="none" d="M 63.5 10 L 58.254501 35.751305 L 44.517883 13.347061 L 48.396194 39.339439 L 27.825287 22.984535 L 40.359623 46.082924 L 15.435591 37.75 L 35.114128 55.168388 L 8.84317 55.862526 L 33.292385 65.5 L 8.84317 75.137474 L 35.114128 75.831612 L 15.435591 93.25 L 40.359623 84.917084 L 27.825287 108.015472 L 48.396194 91.660561 L 44.517883 117.652939 L 58.254501 95.248695 L 63.5 121 L 68.745499 95.248695 L 82.482117 117.652939 L 78.603806 91.660561 L 99.174713 108.015472 L 86.640373 84.917084 L 111.564407 93.25 L 91.885872 75.831612 L 118.15683 75.137474 L 93.707611 65.5 L 118.15683 55.862526 L 91.885872 55.168388 L 111.564407 37.75 L 86.640373 46.082924 L 99.174713 22.984535 L 78.603806 39.339439 L 82.482117 13.347061 L 68.745499 35.751305 Z"/>
</svg>
